<?xml version="1.0" encoding="UTF-8"?>
<svg version="1.1" xmlns="http://www.w3.org/2000/svg" width="500" height="500">
<path d="M0 0 C1.19975049 -0.00445784 2.39950098 -0.00891569 3.63560754 -0.01350862 C5.59972724 -0.01323207 5.59972724 -0.01323207 7.60352612 -0.01294994 C9.01552102 -0.01625172 10.42751499 -0.01997795 11.83950776 -0.02409142 C15.71527406 -0.0340842 19.59102488 -0.03782383 23.46680224 -0.04048073 C27.64907175 -0.04439199 31.83132909 -0.05396986 36.01359081 -0.0626936 C46.112853 -0.08243672 56.21211616 -0.09252232 66.31139281 -0.10142139 C71.07251013 -0.10580855 75.83362633 -0.11117432 80.59474277 -0.11641026 C96.43145835 -0.13342177 112.26817324 -0.14791399 128.10489655 -0.155159 C132.21269068 -0.15706876 136.32048481 -0.15898911 140.42827892 -0.16094494 C141.44919812 -0.16142868 142.47011731 -0.16191242 143.52197345 -0.16241082 C160.04505028 -0.17070385 176.56805455 -0.19602882 193.09109972 -0.22852562 C210.07206955 -0.26164945 227.05300257 -0.27961264 244.03400487 -0.28280324 C253.56118469 -0.2849636 263.08825875 -0.29364252 272.61540699 -0.31926441 C280.73256911 -0.34104441 288.84959977 -0.34898617 296.96678779 -0.33929763 C301.10260755 -0.33477373 305.2381565 -0.33652664 309.37393856 -0.35605907 C347.23469388 -0.52502524 347.23469388 -0.52502524 363.81182384 7.88422108 C364.51250988 8.2278368 365.21319592 8.57145252 365.93511486 8.92548084 C372.09509858 12.03629033 377.61531941 15.73455205 382.93682384 20.13422108 C384.21106213 21.16482655 384.21106213 21.16482655 385.51104259 22.21625233 C401.96463674 36.2005475 412.88278716 56.78296647 415.93682384 78.13422108 C416.02556314 80.15382633 416.06754642 82.17584639 416.07104492 84.19739723 C416.07550277 85.39714772 416.07996061 86.59689821 416.08455354 87.83300477 C416.084277 89.79712447 416.084277 89.79712447 416.08399487 91.80092335 C416.08729664 93.21291825 416.09102287 94.62491222 416.09513634 96.03690499 C416.10512912 99.9126713 416.10886876 103.78842211 416.11152565 107.66419947 C416.11543691 111.84646898 416.12501479 116.02872633 416.13373852 120.21098804 C416.15348164 130.31025023 416.16356724 140.40951339 416.17246631 150.50879005 C416.17685347 155.26990736 416.18221924 160.03102357 416.18745518 164.79214001 C416.20446669 180.62885558 416.21895892 196.46557047 416.22620392 212.30229378 C416.22811368 216.41008791 416.23003403 220.51788204 416.23198986 224.62567616 C416.2324736 225.64659535 416.23295734 226.66751455 416.23345574 227.71937069 C416.24174877 244.24244751 416.26707374 260.76545178 416.29957054 277.28849695 C416.33269438 294.26946678 416.35065756 311.2503998 416.35384816 328.2314021 C416.35600852 337.75858192 416.36468744 347.28565598 416.39030933 356.81280422 C416.41208933 364.92996634 416.4200311 373.046997 416.41034255 381.16418502 C416.40581865 385.30000479 416.40757156 389.43555373 416.427104 393.57133579 C416.59607016 431.43209111 416.59607016 431.43209111 408.18682384 448.00922108 C407.84320812 448.70990711 407.4995924 449.41059315 407.14556408 450.13251209 C404.03475459 456.29249582 400.33649287 461.81271664 395.93682384 467.13422108 C395.24975353 467.98371326 394.56268322 468.83320545 393.85479259 469.70843983 C379.87049742 486.16203397 359.28807845 497.08018439 337.93682384 500.13422108 C335.91721859 500.22296038 333.89519853 500.26494366 331.87364769 500.26844215 C330.6738972 500.2729 329.47414671 500.27735784 328.23804015 500.28195077 C326.27392045 500.28167423 326.27392045 500.28167423 324.27012157 500.2813921 C322.85812667 500.28469388 321.4461327 500.2884201 320.03413993 500.29253358 C316.15837363 500.30252635 312.28262281 500.30626599 308.40684545 500.30892289 C304.22457594 500.31283414 300.0423186 500.32241202 295.86005688 500.33113575 C285.76079469 500.35087887 275.66153153 500.36096447 265.56225488 500.36986354 C260.80113756 500.3742507 256.04002136 500.37961647 251.27890491 500.38485241 C235.44218934 500.40186392 219.60547445 500.41635615 203.76875114 500.42360115 C199.66095701 500.42551091 195.55316288 500.42743126 191.44536877 500.42938709 C189.91398997 500.4301127 189.91398997 500.4301127 188.35167424 500.43085297 C171.82859741 500.439146 155.30559314 500.46447098 138.78254797 500.49696777 C121.80157814 500.53009161 104.82064512 500.54805479 87.83964282 500.55124539 C78.312463 500.55340576 68.78538894 500.56208468 59.2582407 500.58770657 C51.14107858 500.60948656 43.02404792 500.61742833 34.9068599 500.60773978 C30.77104014 500.60321589 26.63549119 500.60496879 22.49970913 500.62450123 C-15.36104619 500.79346739 -15.36104619 500.79346739 -31.93817616 492.38422108 C-32.63886219 492.04060535 -33.33954823 491.69698963 -34.06146717 491.34296131 C-40.2214509 488.23215182 -45.74167172 484.5338901 -51.06317616 480.13422108 C-52.33741444 479.10361561 -52.33741444 479.10361561 -53.63739491 478.05218983 C-70.09098905 464.06789465 -81.00913947 443.48547568 -84.06317616 422.13422108 C-84.15191545 420.11461582 -84.19389873 418.09259576 -84.19739723 416.07104492 C-84.204084 414.27141919 -84.204084 414.27141919 -84.21090585 412.43543738 C-84.21072149 411.12602425 -84.21053712 409.81661112 -84.21034718 408.46751881 C-84.21364895 407.0555239 -84.21737518 405.64352994 -84.22148865 404.23153716 C-84.23148143 400.35577086 -84.23522107 396.48002004 -84.23787796 392.60424268 C-84.24178922 388.42197317 -84.2513671 384.23971583 -84.26009083 380.05745411 C-84.27983395 369.95819192 -84.28991955 359.85892876 -84.29881862 349.75965211 C-84.30320578 344.99853479 -84.30857155 340.23741859 -84.31380749 335.47630215 C-84.330819 319.63958657 -84.34531123 303.80287168 -84.35255623 287.96614838 C-84.35446599 283.85835424 -84.35638634 279.75056011 -84.35834217 275.642766 C-84.35882591 274.6218468 -84.35930965 273.60092761 -84.35980805 272.54907147 C-84.36810108 256.02599464 -84.39342605 239.50299038 -84.42592285 222.97994521 C-84.45904669 205.99897537 -84.47700987 189.01804235 -84.48020047 172.03704005 C-84.48236084 162.50986023 -84.49103975 152.98278617 -84.51666164 143.45563793 C-84.53844164 135.33847581 -84.54638341 127.22144516 -84.53669486 119.10425713 C-84.53217096 114.96843737 -84.53392387 110.83288842 -84.55345631 106.69710636 C-84.72242247 68.83635104 -84.72242247 68.83635104 -76.31317616 52.25922108 C-75.96956043 51.55853504 -75.62594471 50.85784901 -75.27191639 50.13593006 C-72.1611069 43.97594634 -68.46284518 38.45572551 -64.06317616 33.13422108 C-63.37610584 32.28472889 -62.68903553 31.4352367 -61.98114491 30.56000233 C-47.20830747 13.17862783 -23.192441 0.04013685 0 0 Z " fill="#FEFEFE" transform="translate(84.06317615509033,-0.13422107696533203)"/>
<path d="M0 0 C2.02115375 0.00028238 4.04230761 0.00012314 6.0634613 -0.0004425 C11.52757996 -0.00072849 16.99167651 0.00513604 22.45579004 0.01213145 C28.17461693 0.01839817 33.89344438 0.01897141 39.61227417 0.02015686 C50.43152402 0.02326041 61.25076372 0.03146061 72.07000911 0.04150635 C84.39164972 0.05269784 96.71329081 0.05818558 109.03493524 0.06320179 C134.37209135 0.07364405 159.70923846 0.09122455 185.04638672 0.11352539 C184.9604071 0.74355591 184.87442748 1.37358642 184.78584242 2.02270877 C184.39211406 4.9081049 183.99848547 7.79351462 183.6048584 10.67892456 C183.46961132 11.66995776 183.33436424 12.66099096 183.19501877 13.68205547 C182.22891464 20.76463262 181.27286092 27.84844266 180.32763672 34.93383789 C180.03214391 37.14087987 179.73656856 39.34791079 179.44091797 41.55493164 C178.99271586 44.90199724 178.54497384 48.24912122 178.09863281 51.59643555 C176.58255404 62.96122715 175.05147323 74.32360265 173.39013672 85.66821289 C173.26892456 86.51417023 173.1477124 87.36012756 173.02282715 88.23171997 C172.16373014 93.99618196 172.16373014 93.99618196 171.04638672 95.11352539 C169.01035723 95.20941927 166.97094807 95.23371737 164.93266296 95.23136902 C163.96402894 95.23242589 163.96402894 95.23242589 162.97582656 95.23350412 C160.79578857 95.23482027 158.6158217 95.22912307 156.43579102 95.22363281 C154.87877909 95.22339083 153.32176701 95.22366744 151.76475525 95.22442627 C148.40186259 95.22553532 145.03898354 95.22409243 141.67609215 95.2210598 C136.35050481 95.21743344 131.02498881 95.22655553 125.69941711 95.23884583 C124.80086917 95.24086775 123.90232123 95.24288968 122.97654456 95.24497288 C121.1383787 95.24914204 119.30021292 95.2533448 117.46204722 95.2575804 C105.06002467 95.28571693 92.65815449 95.30590818 80.25610352 95.28857422 C71.89729413 95.27698672 63.53880356 95.28670054 55.18005115 95.3206318 C50.7584864 95.33773646 46.33749652 95.34415312 41.91592979 95.32451439 C37.74680302 95.30616768 33.57866152 95.31607915 29.40961647 95.34677124 C27.88757186 95.35309263 26.36544374 95.34939199 24.84346008 95.33437538 C13.97894905 95.23522795 4.80538626 96.78902262 -3.44713306 104.41891766 C-13.53677358 115.12119646 -14.1088232 127.57556408 -15.82861328 141.61352539 C-17.05977701 151.47221555 -18.39341414 161.3004108 -19.95361328 171.11352539 C-21.45777371 180.59429414 -22.75621416 190.08937689 -23.95361328 199.61352539 C-25.1330479 208.99150045 -26.40649823 218.34129475 -27.89111328 227.67602539 C-29.62940503 238.61072065 -31.09560741 249.57159915 -32.51611328 260.55102539 C-33.95923753 271.70183521 -35.42539521 282.83413376 -37.27783203 293.92602539 C-38.25410243 299.97551597 -39.08701718 306.04735268 -39.95361328 312.11352539 C-70.97361328 312.11352539 -101.99361328 312.11352539 -133.95361328 312.11352539 C-132.80249702 295.99789777 -132.80249702 295.99789777 -131.71923828 288.06274414 C-131.54189903 286.72814148 -131.54189903 286.72814148 -131.36097717 285.36657715 C-130.97982867 282.51074804 -130.59204633 279.65587204 -130.20361328 276.80102539 C-129.93426823 274.79818487 -129.66498184 272.79533647 -129.39575195 270.79248047 C-127.70206256 258.26372325 -125.88736346 245.757525 -123.95031738 233.26425171 C-122.50585937 223.94744105 -121.22988387 214.63017156 -120.11474609 205.26879883 C-119.00399335 196.12739604 -117.59725475 187.03643588 -116.18899536 177.93746948 C-114.40920232 166.41192649 -112.85666945 154.87427369 -111.40527344 143.30249023 C-110.22778201 134.00280816 -108.85477018 124.74678478 -107.38525391 115.48925781 C-106.23546795 108.17073384 -105.27169347 100.84392574 -104.39111328 93.48852539 C-100.64436735 62.8843335 -92.24905367 37.4264866 -67.13867188 17.68676758 C-46.56538637 2.55383417 -24.71198314 -0.04840881 0 0 Z " fill="#0189FF" transform="translate(224.95361328125,93.886474609375)"/>
<path d="M0 0 C1.31225555 -0.01265396 2.62451111 -0.02530792 3.97653198 -0.03834534 C5.42389311 -0.02702988 6.87125031 -0.01520243 8.31860352 -0.00291443 C9.84816314 -0.00805444 11.37771685 -0.01533635 12.90725708 -0.02459717 C17.05614791 -0.04310931 21.20439598 -0.03017417 25.35326004 -0.01050687 C29.69645176 0.00588267 34.03960287 -0.00293368 38.3828125 -0.00802612 C45.67629255 -0.01254675 52.96951612 0.00332074 60.26293945 0.03126526 C68.6933281 0.06331712 77.12325416 0.06330139 85.55367565 0.04605049 C93.6658171 0.03018279 101.77778906 0.0369205 109.8899231 0.0539875 C113.34120194 0.06085738 116.7923449 0.05982623 120.24362183 0.05244255 C124.3083908 0.04477733 128.37263379 0.05691309 132.43731308 0.08429146 C133.9284293 0.09117397 135.41959466 0.09127464 136.91070938 0.08407593 C138.94715118 0.0753779 140.98365489 0.09377952 143.02001953 0.11352539 C144.15931412 0.11633231 145.2986087 0.11913923 146.47242737 0.12203121 C150.21703015 0.74600118 151.88462689 1.91848695 154.51000977 4.62818909 C155.45975508 9.53520653 155.45975508 9.53520653 154.51000977 12.62818909 C153.15820312 14.16773987 153.15820312 14.16773987 151.41235352 15.57350159 C150.4583667 16.3433136 150.4583667 16.3433136 149.48510742 17.12867737 C146.49563157 19.39831404 143.44007781 21.53885327 140.32250977 23.62818909 C138.92093521 24.5805303 137.51992137 25.53369709 136.11938477 26.48756409 C135.37881836 26.99094299 134.63825195 27.4943219 133.87524414 28.01295471 C129.58843943 30.94044233 125.32941457 33.90746034 121.07250977 36.87818909 C120.25693604 37.44408752 119.4413623 38.00998596 118.60107422 38.59303284 C117.01560212 39.70023402 115.4382902 40.81922358 113.86987305 41.95045471 C112.24581374 43.1050725 110.59043557 44.21646771 108.91186523 45.29029846 C108.08702637 45.85039612 107.2621875 46.41049377 106.41235352 46.98756409 C105.66332764 47.47192932 104.91430176 47.95629456 104.14257812 48.45533752 C100.09110309 53.84761026 102.80634895 63.28373629 103.60375977 69.59693909 C103.71473999 70.51728943 103.82572021 71.43763977 103.94006348 72.38587952 C104.29166188 75.30062406 104.64996404 78.21447674 105.01000977 81.12818909 C105.4848913 84.97122369 105.95268218 88.81502633 106.41625977 92.65943909 C106.52562866 93.52532654 106.63499756 94.39121399 106.74768066 95.28334045 C108.49681109 109.80640203 108.49681109 109.80640203 105.88500977 114.62818909 C102.92331157 117.12225072 101.38586633 117.70570622 97.51000977 117.62818909 C92.39845914 114.71060631 88.52070855 110.88768906 84.42407227 106.70240784 C83.76345795 106.03659195 83.10284363 105.37077606 82.42221069 104.68478394 C80.32162651 102.56648801 78.22787103 100.44161331 76.13500977 98.31568909 C74.04846088 96.20132922 71.96039594 94.08852531 69.86923218 91.97872925 C68.57291813 90.67036577 67.27928128 89.35934177 65.98892212 88.04510498 C62.94076987 84.9638112 59.84321441 82.00735389 56.56030273 79.17628479 C52.28913802 75.48824888 48.31888607 71.54662514 44.35375977 67.53443909 C43.60719116 66.78408386 42.86062256 66.03372864 42.09143066 65.26063538 C38.93299864 62.08602405 35.78061697 58.90542993 32.62768555 55.72535706 C30.30931231 53.38878548 27.98785457 51.05530909 25.66625977 48.72193909 C24.96706421 48.01444519 24.26786865 47.30695129 23.54748535 46.57801819 C19.60586422 42.61708808 15.55562014 38.86141418 11.32382202 35.21269226 C8.9189122 33.11182034 6.64815921 30.89592387 4.38891602 28.63990784 C3.51686523 27.76914612 2.64481445 26.8983844 1.74633789 26.00123596 C0.86397461 25.11500549 -0.01838867 24.22877502 -0.92749023 23.31568909 C-1.83692383 22.41012268 -2.74635742 21.50455627 -3.68334961 20.57154846 C-4.54637695 19.70723206 -5.4094043 18.84291565 -6.29858398 17.95240784 C-7.08031982 17.16954407 -7.86205566 16.3866803 -8.66748047 15.58009338 C-10.91089277 13.17740332 -11.42853411 12.08911001 -11.86499023 8.81568909 C-11.06284097 1.99742035 -6.28986621 0.00323692 0 0 Z " fill="#01C600" transform="translate(239.489990234375,258.37181091308594)"/>
<path d="M0 0 C6.32107632 2.01218625 12.45120703 4.32963688 18.5703125 6.88671875 C19.9246212 7.44806519 19.9246212 7.44806519 21.30628967 8.02075195 C24.24701468 9.24023946 27.18598595 10.46389553 30.125 11.6875 C33.22077756 12.97237377 36.31702371 14.25611349 39.41331482 15.53974915 C41.51612598 16.4115534 43.61879655 17.28369685 45.72132874 18.15617371 C56.64136201 22.68602611 67.58033962 27.16937351 78.52374268 31.64242554 C90.04787755 36.35329767 101.53347223 41.1505763 113 46 C113.86196193 53.09750122 114.71555357 60.19597403 115.56347656 67.29516602 C115.85258849 69.70750431 116.14357907 72.11961825 116.43652344 74.53149414 C116.85852446 78.00869646 117.27364663 81.48666344 117.6875 84.96484375 C117.81874268 86.03395493 117.94998535 87.1030661 118.08520508 88.20457458 C119.96947443 104.21020106 119.96947443 104.21020106 117.375 109 C114.41330181 111.49406163 112.87585656 112.07751713 109 112 C103.88844938 109.08241722 100.01069879 105.25949997 95.9140625 101.07421875 C95.25344818 100.40840286 94.59283386 99.74258698 93.91220093 99.05659485 C91.81161674 96.93829893 89.71786126 94.81342422 87.625 92.6875 C85.53845111 90.57314013 83.45038617 88.46033622 81.35922241 86.35054016 C80.06290836 85.04217668 78.76927152 83.73115268 77.47891235 82.41691589 C74.4307601 79.33562211 71.33320464 76.3791648 68.05029297 73.5480957 C63.77912825 69.86005979 59.80887631 65.91843605 55.84375 61.90625 C55.0971814 61.15589478 54.35061279 60.40553955 53.5814209 59.63244629 C50.42298888 56.45783496 47.27060721 53.27724084 44.11767578 50.09716797 C41.79930255 47.76059639 39.4778448 45.42712001 37.15625 43.09375 C36.45705444 42.3862561 35.75785889 41.67876221 35.03747559 40.9498291 C31.09585445 36.98889899 27.04561038 33.23322509 22.81381226 29.58450317 C20.40890243 27.48363125 18.13814945 25.26773479 15.87890625 23.01171875 C15.00685547 22.14095703 14.13480469 21.27019531 13.23632812 20.37304688 C12.35396484 19.48681641 11.47160156 18.60058594 10.5625 17.6875 C9.65306641 16.78193359 8.74363281 15.87636719 7.80664062 14.94335938 C6.94361328 14.07904297 6.08058594 13.21472656 5.19140625 12.32421875 C4.40967041 11.54135498 3.62793457 10.75849121 2.82250977 9.9519043 C-0.26949077 6.64037793 -0.09637193 4.43310888 0 0 Z " fill="#FC9601" transform="translate(228,264)"/>
</svg>
